<svg enable-background="new 0 0 100 100" height="512" viewBox="0 0 100 100" width="512" xmlns="http://www.w3.org/2000/svg"><circle cx="50" cy="50" fill="#feed32" r="18.058"/><circle cx="50" cy="50" fill="#f2bc19" r="13.861"/><g fill="#ffcb08"><path d="m50.0001106 35.2614632c-.1735153 0-.3142929-.1407776-.3142929-.3142929v-1.734333c0-.1735153.1407776-.3142929.3142929-.3142929s.3142929.1407776.3142929.3142929v1.734333c0 .1735153-.1407776.3142929-.3142929.3142929z"/><path d="m50.0001106 67.1015091c-.1735153 0-.3142929-.1407776-.3142929-.3142929v-1.7343369c0-.1735153.1407776-.3142853.3142929-.3142853s.3142929.14077.3142929.3142853v1.7343369c0 .1735153-.1407776.3142929-.3142929.3142929z"/><path d="m47.3855133 35.4898148c-.1497765 0-.2823715-.1072197-.3089714-.2598648l-.3007851-1.707325c-.0302849-.1706505.0838928-.3339348.2549515-.3638077.1714706-.0302811.334343.0838928.3638077.2549515l.3007889 1.707325c.0302849.1706505-.0838928.3339348-.2549515.3638115-.0184174.003273-.0368309.0049095-.0548401.0049095z"/><path d="m52.9146767 66.8461456c-.1497803 0-.2823715-.1072159-.3089714-.2598648l-.3011971-1.7077332c-.0302849-.1706467.0838928-.333931.2549515-.3638077.1718788-.0290527.3343468.0838928.3638115.2549515l.3011932 1.7077332c.0302849.1706543-.0838928.3339386-.2549515.3638077-.0184135.003273-.0368309.0049133-.0548362.0049133z"/><path d="m44.8515358 36.1691437c-.1284981 0-.2488136-.0789833-.2954636-.206665l-.5929832-1.62957c-.0593376-.1632843.0249634-.3437538.1878395-.4030952.1645126-.0577011.3433495.0249634.4030952.1878395l.5929794 1.62957c.0593414.1632843-.0249634.3437576-.1878357.4030952-.0356063.0126876-.0720252.0188255-.1076316.0188255z"/><path d="m55.7416649 66.0890656c-.1284981 0-.2488136-.0789871-.2954674-.206665l-.5933876-1.62957c-.0593414-.1632843.0249634-.3437576.1878357-.4030952.1641045-.0581131.3433495.0249634.4030952.1878395l.5933914 1.62957c.0593376.1632843-.0249634.3437576-.1878395.4030914-.0356025.0126876-.0720252.0188293-.1076278.0188293z"/><path d="m42.4738884 37.2781677c-.1088562 0-.2144394-.0564728-.2725487-.1571465l-.8671684-1.5018883c-.0867577-.1501884-.0351944-.3425293.114994-.429287.1510086-.0867577.3429375-.0351944.429287.114994l.8671684 1.5018883c.0867577.1501923.0351944.3425293-.1149979.429287-.0495147.0286485-.1035346.0421525-.1567344.0421525z"/><path d="m58.3939095 64.852356c-.1088562 0-.2144394-.0564728-.2725487-.1571426l-.8671684-1.5018921c-.0867577-.1501884-.0351944-.3425255.1149979-.4292831.151413-.0875778.3429375-.0351944.4292831.114994l.8671684 1.5018883c.0867577.1501846.0351944.3425293-.114994.4292831-.0495186.0286483-.1035386.0421524-.1567383.0421524z"/><path d="m40.3241806 38.7829208c-.0896225 0-.1784248-.0380592-.2406273-.1121292l-1.1147537-1.328373c-.111721-.1330032-.0945358-.3314819.0384674-.442791.1325912-.111721.3310699-.0945358.442791.0384674l1.1147537 1.328373c.111721.1329994.094532.3314781-.0384674.442791-.0589294.0495186-.1305466.0736618-.2021637.0736618z"/><path d="m60.7903862 63.1740875c-.0896225 0-.1784286-.0380592-.2406311-.1121292l-1.1143456-1.328373c-.111721-.1330032-.094532-.3314781.0384712-.442791.1329994-.111721.330658-.094532.442791.0384674l1.1143417 1.328373c.111721.1330032.0945358.3314819-.0384674.442791-.0589294.0495186-.1305465.0736618-.2021598.0736618z"/><path d="m38.4687157 40.6383896c-.0716171 0-.1432343-.024147-.2021637-.0736618l-1.328373-1.1147537c-.1329994-.1113129-.1501884-.3097916-.0384674-.442791.111721-.1334114.3101997-.1501923.442791-.0384712l1.328373 1.1147537c.1329994.1113129.1501884.3097916.0384674.442791-.0622025.0740738-.1510048.112133-.2406273.112133z"/><path d="m62.8594742 61.1045914c-.0716171 0-.1432343-.0241432-.2021637-.0736618l-1.328373-1.1143456c-.1330032-.1113091-.1501884-.3097878-.0384674-.442791.111721-.1329994.3101997-.1497765.442791-.0384674l1.328373 1.1143456c.1329994.1113129.1501884.3097916.0384674.442791-.0622025.0740699-.1510086.1121292-.2406273.1121292z"/><path d="m36.9631424 42.7876854c-.0531998 0-.1072197-.013504-.1567383-.0421524l-1.5014801-.8667564c-.1501884-.0867577-.2017517-.2790985-.114994-.429287.0863495-.1497803.2782784-.2017517.429287-.114994l1.5014801.8667564c.1501884.0867577.2017517.2790985.114994.429287-.0581093.1006736-.1636925.1571464-.2725487.1571464z"/><path d="m64.5377426 58.7077103c-.0531998 0-.1072235-.0135078-.1567383-.0421524l-1.5018883-.8667564c-.1501884-.0867577-.2017517-.2790985-.114994-.429287.0859375-.1501884.2786865-.2017555.429287-.1149979l1.5018883.8667603c.1501846.0867577.2017517.2790985.1149902.429287-.0581055.1006698-.1636887.1571464-.2725449.1571464z"/><path d="m35.8549347 45.1657448c-.0356026 0-.0720253-.0061378-.1076279-.0188255l-1.62957-.5929794c-.1628723-.0593376-.2471771-.2398109-.1878357-.4030952.0597458-.1628761.2389908-.2463608.4030952-.1878395l1.62957.5929794c.1628723.0593414.2471771.2398109.1878357.4030952-.0466499.1276817-.1669654.206665-.2954673.206665z"/><path d="m65.7744446 56.0558701c-.0355988 0-.0720215-.0061378-.1076279-.0188217l-1.629158-.5929832c-.1628761-.0593376-.2471771-.2398109-.1878395-.4030952.0597496-.1628723.2385826-.2471771.4030952-.1878357l1.629158.5929794c.1628799.0593376.2471771.2398109.1878433.4030952-.0466537.1276817-.1669692.2066612-.2954711.2066612z"/><path d="m35.1760178 47.7005386c-.0180054 0-.0364227-.0016365-.0548363-.0049095l-1.707737-.3011971c-.1710587-.0298729-.2852364-.1931572-.2549515-.3638077.0298729-.1710587.1935692-.2848282.3638077-.2549515l1.707737.3011932c.1710587.0298767.2852325.193161.2549515.3638115-.0265999.1526453-.1591912.2598611-.3089714.2598611z"/><path d="m66.5323486 53.2292938c-.0180054 0-.0364227-.0016403-.0548401-.0049133l-1.7077332-.3011971c-.1710587-.0298729-.2852325-.1931572-.2549515-.3638077.0298767-.1706505.1939774-.284008.3638077-.2549515l1.7077332.3011971c.1710587.0298729.2852402.1931572.2549515.3638077-.026596.1526451-.1591873.2598648-.3089676.2598648z"/><path d="m34.946846 50.3143196h-1.7339249c-.1735153 0-.3142929-.1407776-.3142929-.3142929s.1407776-.3142929.3142929-.3142929h1.7339249c.1735153 0 .3142929.1407776.3142929.3142929s-.1407776.3142929-.3142929.3142929z"/><path d="m66.7868881 50.3143196h-1.7339249c-.1735153 0-.3142853-.1407776-.3142853-.3142929s.14077-.3142929.3142853-.3142929h1.7339249c.1735153 0 .3142929.1407776.3142929.3142929s-.1407776.3142929-.3142929.3142929z"/><path d="m33.4674644 53.2292938c-.1497803 0-.2823715-.1072197-.3089714-.2598648-.0302849-.1706505.0838928-.3339348.2549515-.3638077l1.707737-.3011971c.171875-.0290565.334343.084301.3638077.2549515.0302811.1706505-.0838928.3339348-.2549515.3638077l-1.707737.3011971c-.0184135.003273-.0368309.0049133-.0548363.0049133z"/><path d="m64.8237991 47.7005386c-.1497803 0-.2823715-.1072159-.3089752-.259861-.0302811-.1706505.0838928-.3339348.2549515-.3638115l1.7077332-.3011932c.172287-.0298767.334343.0838928.3638077.2549515.0302887.1706505-.0838928.3339348-.2549515.3638077l-1.7077332.3011971c-.0184174.0032729-.0368271.0049094-.0548325.0049094z"/><path d="m34.2253647 56.0558701c-.1284981 0-.2488136-.0789795-.2954636-.2066612-.0593414-.1632843.0249634-.3437576.1878357-.4030952l1.62957-.5929794c.1649208-.0589294.3437576.0249634.4030952.1878357.0593414.1632843-.0249634.3437576-.1878357.4030952l-1.62957.5929832c-.0356063.0126838-.0720252.0188217-.1076316.0188217z"/><path d="m64.1452866 45.1657448c-.1285019 0-.2488136-.0789833-.2954674-.206665-.0593376-.1632843.0249634-.3437538.1878395-.4030952l1.629158-.5929794c.1649246-.0581093.3437576.0249634.4030991.1878395.0593338.1632843-.0249634.3437576-.1878433.4030952l-1.629158.5929794c-.0356065.0126876-.0720216.0188255-.1076279.0188255z"/><path d="m35.4624825 58.7077103c-.1088562 0-.2144394-.0564766-.2725525-.1571465-.0867577-.1501884-.0351944-.3425293.114994-.429287l1.5014801-.8667603c.1501884-.0867577.3425293-.0351906.429287.1149979s.0351944.3425293-.114994.429287l-1.5014801.8667564c-.0495187.0286446-.1035348.0421525-.1567345.0421525z"/><path d="m63.0366707 42.7876854c-.1088562 0-.2144394-.0564728-.2725487-.1571465-.0867577-.1501884-.0351944-.3425293.114994-.429287l1.5018883-.8667564c.1501923-.0867577.3425293-.0347862.4292831.114994.0867615.1501884.0351944.3425293-.1149902.429287l-1.5018882.8667565c-.0495186.0286484-.1035385.0421524-.1567383.0421524z"/><path d="m37.1403389 61.1045914c-.0896225 0-.1784248-.0380592-.2406273-.1121292-.111721-.1329994-.094532-.3314781.0384674-.442791l1.328373-1.1143456c.1325912-.1113091.3310699-.094532.442791.0384674.111721.1330032.094532.3314819-.0384674.442791l-1.328373 1.1143456c-.0589294.0495186-.1305466.0736618-.2021637.0736618z"/><path d="m61.5310974 40.6383896c-.0896225 0-.1784248-.0380592-.2406273-.112133-.111721-.1329994-.0945358-.3314781.0384674-.442791l1.328373-1.1147537c.1325912-.111721.3310699-.0949402.442791.0384712.111721.1329994.094532.3314781-.0384674.442791l-1.328373 1.1147537c-.0589294.0495148-.1305466.0736618-.2021637.0736618z"/><path d="m39.2094269 63.1740875c-.0716133 0-.1432304-.0241432-.2021599-.0736618-.1330032-.1113091-.1501884-.3097878-.0384674-.442791l1.1147537-1.328373c.1121292-.1329994.3097878-.1501884.442791-.0384674.1329994.1113129.1501884.3097878.0384674.442791l-1.1147537 1.328373c-.0622025.07407-.1510086.1121292-.2406311.1121292z"/><path d="m59.6760406 38.7829208c-.0716171 0-.1432304-.0241432-.2021599-.0736618-.1330032-.1113129-.1501923-.3097916-.0384712-.442791l1.1143456-1.328373c.1121292-.1330032.3097916-.1501884.442791-.0384674.1330032.1113091.1501884.3097878.0384674.442791l-1.1143417 1.328373c-.0622063.07407-.1510087.1121292-.2406312.1121292z"/><path d="m41.6059036 64.852356c-.0532036 0-.1072197-.013504-.1567383-.0421524-.1501884-.0867538-.2017517-.2790985-.114994-.4292831l.8671684-1.5018883c.0867538-.1501884.2790947-.2025719.4292831-.114994.1501923.0867577.2017555.2790947.1149979.4292831l-.8671684 1.5018921c-.0581131.1006698-.1636925.1571426-.2725487.1571426z"/><path d="m57.5259247 37.2781677c-.0531998 0-.1072197-.013504-.1567345-.0421524-.1501923-.0867577-.2017555-.2790947-.1149979-.429287l.8671684-1.5018883c.0863495-.1501884.2778702-.2017517.429287-.114994.1501884.0867577.2017517.2790985.114994.429287l-.8671684 1.5018883c-.0581092.1006736-.1636924.1571464-.2725486.1571464z"/><path d="m44.2585564 66.0890656c-.0356026 0-.0720253-.0061417-.1076279-.0188293-.1628761-.0593338-.2471771-.2398071-.1878395-.4030914l.5929832-1.62957c.0593376-.1628761.2398109-.2463608.4030952-.1878395.1628723.0593376.2471771.2398109.1878357.4030952l-.5929794 1.62957c-.0466537.1272735-.1669654.206665-.2954673.206665z"/><path d="m55.1482735 36.1691437c-.0356026 0-.0720215-.0061378-.1076279-.0188255-.1628723-.0593376-.2471771-.2398109-.1878357-.4030952l.5933876-1.62957c.0597496-.1628761.2389946-.2459488.4030952-.1878395.1628761.0593414.2471771.2398109.1878395.4030952l-.5933914 1.62957c-.0466499.1276817-.1669654.206665-.2954673.206665z"/><path d="m47.0855446 66.8461456c-.0180054 0-.0364189-.0016403-.0548363-.0049133-.1710587-.0298691-.2852364-.192749-.2549515-.3638077l.3007851-1.7077332c.0298767-.1710587.1939774-.2840042.3638115-.2549515.1710587.0298767.2852364.193161.2549515.3638077l-.3007889 1.7077332c-.0265999.1526489-.1591911.2598648-.3089714.2598648z"/><path d="m52.6142998 35.4898148c-.0180092 0-.0364227-.0016365-.0548401-.0049095-.1710587-.0298767-.2852364-.193161-.2549515-.3638115l.3011971-1.707325c.0298729-.1710587.1943855-.2852325.3638077-.2549515.1710587.0298729.2852364.1931572.2549515.3638077l-.3011932 1.707325c-.0266.1526451-.1591951.2598648-.3089715.2598648z"/></g><path d="m49.3728752 58.8087463v-1.3399048c-1.2088852-.071991-2.1184387-.4737053-2.7292175-1.2055283-.6109695-.7318192-.9164543-1.7866554-.9164543-3.1652527v-.3823204h2.3813972c0 .0522194-.0033569.1309204-.009697.235363-.0067139.1044388-.0098839.1797829-.0098839.2252884 0 .6926537.1109657 1.2249222.333271 1.5971718.2219353.3726234.5682602.6012726 1.0387993.6863174v-4.449482c-1.2872124-.7053375-2.2049713-1.4192543-2.7538376-2.1410027s-.823204-1.5695724-.823204-2.5430946c0-1.1301804.3086548-2.0317154.9261513-2.7049751.6173096-.6725121 1.4714737-1.0354385 2.5626755-1.0876579v-1.3424149h1.1074257v1.3621826c1.1234703.0130577 1.979496.3267479 2.5675278.9407005.587841.6139526.8819504 1.5057869.8819504 2.6751328v.2842255h-2.3226509v-.2055206c0-.5553932-.1061211-.9899368-.3183556-1.303627-.2124214-.3133163-.5082092-.4800453-.8869858-.4998131v4.0082245c1.489563.7709846 2.5070992 1.5061607 3.0526085 2.2051582.5455055.6989937.8183556 1.571064.8183556 2.6165733 0 1.2868385-.3250694 2.2898293-.9750137 3.0082207-.650135.7187653-1.5893402 1.1141396-2.8174362 1.1861305v1.3399048h-1.1074258zm.0882149-10.8949699-.0098877-3.4886398c-.3789635.0328255-.6697159.1879921-.8722534.4654999-.2025375.2775116-.3036194.6583405-.3036194 1.1417427 0 .3659134.0962334.703846.2890739 1.0141792.1926537.3103332.4914246.5994072.8966866.867218zm.9406967 7.5461044c.4377136-.0787048.7707977-.26968.9996338-.5732994.2286453-.3039894.342968-.7071991.342968-1.2103729 0-.49646-.0979118-.904892-.2939224-1.2249222-.1960068-.3200302-.5456924-.6404381-1.0486794-.9604683z" fill="#feed32"/><path d="m70.0325089 67.6562424c-5.4252167 5.4238129-12.63731 8.4113312-20.3086319 8.4113312-14.9352875 0-27.2391186-11.4608383-28.5913258-26.0491066h8.1426868l-12.1376686-12.1375695-12.1375694 12.1375694h8.3796721c1.3735275 18.8564491 17.1433945 33.7817802 36.3442039 33.7817802 9.7366676 0 18.8908691-3.7917862 25.7758636-10.6767807z" fill="#4388b9"/><path d="m86.6203766 49.9819183c-1.3733826-18.8566417-17.1433487-33.7821674-36.3442536-33.7821674-9.7366676 0-18.890873 3.7917881-25.7758636 10.6766834l5.4672279 5.4672318c5.4252167-5.4237213 12.6373138-8.4112434 20.3086357-8.4112434 14.9354324 0 27.2392654 11.4610329 28.5913239 26.0494003h-8.1426849l12.1376648 12.1376648 12.1375732-12.1375695z" fill="#e7a04e"/></svg>